<svg width="40" height="40" viewBox="0 0 40 40" fill="none" xmlns="http://www.w3.org/2000/svg">
<rect x="1.5" y="1.5" width="37" height="37" rx="18.5" fill="white"/>
<rect x="1.5" y="1.5" width="37" height="37" rx="18.5" stroke="#EAF7FF" stroke-width="3"/>
<path d="M17.5469 23.8281C17.4695 23.8012 17.3875 23.79 17.3057 23.7951C17.2239 23.8003 17.1439 23.8216 17.0704 23.858C16.997 23.8944 16.9315 23.945 16.8778 24.0069C16.8242 24.0689 16.7834 24.1409 16.7578 24.2188C16.2422 25.7578 14.5781 26.2344 13.6172 26.3828C13.7656 25.4219 14.2422 23.7578 15.7812 23.2422C15.8655 23.2218 15.9446 23.1841 16.0135 23.1314C16.0824 23.0788 16.1396 23.0124 16.1815 22.9364C16.2233 22.8605 16.2489 22.7767 16.2566 22.6903C16.2643 22.6039 16.254 22.5169 16.2262 22.4348C16.1985 22.3526 16.154 22.2771 16.0955 22.2131C16.037 22.1491 15.9658 22.098 15.8865 22.063C15.8071 22.028 15.7214 22.0098 15.6347 22.0098C15.548 22.0097 15.4622 22.0276 15.3828 22.0625C14.1016 22.4844 13.1641 23.5 12.6641 24.9922C12.4425 25.6634 12.3214 26.3637 12.3047 27.0703C12.3047 27.2361 12.3705 27.3951 12.4877 27.5123C12.605 27.6295 12.7639 27.6953 12.9297 27.6953C13.6363 27.6786 14.3366 27.5575 15.0078 27.3359C16.5 26.8359 17.5156 25.8984 17.9375 24.6172C17.9644 24.5398 17.9756 24.4578 17.9705 24.376C17.9654 24.2942 17.944 24.2142 17.9076 24.1408C17.8713 24.0673 17.8206 24.0018 17.7587 23.9482C17.6968 23.8945 17.6248 23.8537 17.5469 23.8281Z" fill="#77ADFF"/>
<path d="M27.7803 13.2657C27.7437 13.001 27.6216 12.7555 27.4326 12.5665C27.2437 12.3775 26.9981 12.2555 26.7334 12.2188C25.8506 12.086 23.5616 12.0235 21.3272 14.2579L20.6241 14.9532H15.835C15.504 14.9555 15.1871 15.0873 14.9522 15.3204L12.4287 17.8516C12.2687 18.0108 12.1551 18.2105 12.1 18.4293C12.045 18.6482 12.0506 18.8779 12.1162 19.0938C12.1814 19.3113 12.3045 19.5069 12.4724 19.6597C12.6404 19.8125 12.8467 19.9166 13.0694 19.961L16.1553 20.5782L19.4209 23.8438L20.0381 26.9298C20.0825 27.1524 20.1866 27.3588 20.3394 27.5267C20.4922 27.6946 20.6878 27.8177 20.9053 27.8829C21.0214 27.9201 21.1427 27.9385 21.2647 27.9376C21.429 27.939 21.5919 27.9073 21.7436 27.8442C21.8953 27.7811 22.0327 27.6879 22.1475 27.5704L24.6787 25.0469C24.9119 24.812 25.0437 24.4951 25.0459 24.1641V19.3751L25.7412 18.6719C27.9756 16.4376 27.9131 14.1485 27.7803 13.2657ZM15.835 16.2032H19.3741L16.2569 19.3204L13.3116 18.7344L15.835 16.2032ZM23.7959 24.1641L21.2647 26.6876L20.6787 23.7423L23.7959 20.6251V24.1641Z" fill="#77ADFF"/>
</svg>
