<svg width="40" height="40" viewBox="0 0 40 40" fill="none" xmlns="http://www.w3.org/2000/svg">
<path d="M20 1.5C30.2173 1.5 38.5 9.78273 38.5 20C38.5 30.2173 30.2173 38.5 20 38.5C9.78273 38.5 1.5 30.2173 1.5 20C1.5 9.78273 9.78273 1.5 20 1.5Z" fill="white"/>
<path d="M20 1.5C30.2173 1.5 38.5 9.78273 38.5 20C38.5 30.2173 30.2173 38.5 20 38.5C9.78273 38.5 1.5 30.2173 1.5 20C1.5 9.78273 9.78273 1.5 20 1.5Z" stroke="#EAF7FF" stroke-width="3"/>
<path d="M27.266 23.7422C26.8051 22.9453 26.2504 21.4297 26.2504 18.75V18.1953C26.2504 14.7344 23.4691 11.8984 20.0473 11.875H20.0004C19.1793 11.874 18.3661 12.0349 17.6074 12.3487C16.8486 12.6624 16.1592 13.1227 15.5787 13.7033C14.9981 14.2839 14.5378 14.9733 14.224 15.732C13.9103 16.4908 13.7494 17.304 13.7504 18.125V18.75C13.7504 21.4297 13.1957 22.9453 12.7348 23.7422C12.6208 23.9319 12.56 24.1487 12.5586 24.37C12.5572 24.5913 12.6154 24.8089 12.7269 25C12.8363 25.1911 12.9945 25.3496 13.1853 25.4595C13.3762 25.5693 13.5927 25.6264 13.8129 25.625H26.1879C26.408 25.6264 26.6246 25.5693 26.8154 25.4595C27.0062 25.3496 27.1644 25.1911 27.2738 25C27.3854 24.8089 27.4435 24.5913 27.4421 24.37C27.4408 24.1487 27.3799 23.9319 27.266 23.7422V23.7422Z" fill="#FFC548"/>
<path d="M22.4922 26.875H17.4922C17.3264 26.875 17.1675 26.9408 17.0502 27.0581C16.933 27.1753 16.8672 27.3342 16.8672 27.5C16.8672 27.6658 16.933 27.8247 17.0502 27.9419C17.1675 28.0592 17.3264 28.125 17.4922 28.125H22.4922C22.6579 28.125 22.8169 28.0592 22.9341 27.9419C23.0513 27.8247 23.1172 27.6658 23.1172 27.5C23.1172 27.3342 23.0513 27.1753 22.9341 27.0581C22.8169 26.9408 22.6579 26.875 22.4922 26.875Z" fill="#FFC548"/>
</svg>
